# xmcd
#
# Track frame offsets:
#	150
#	14092
#	30474
#	48414
#	69709
#	87794
#	106273
#	126111
#	140038
#	153980
#	170362
#	188302
#	209597
#	227682
#	246161
#	265999
#
# Disc length: 3732 seconds
#
# Revision: 1
# Processed by: cddbd v1.5.1PL0 Copyright (c) Steve Scherf et al.
# Submitted via: audiograbber 1.83.01
#
DISCID=da0e9210
DTITLE=Karaoke Party - KP5490
DYEAR=1900
DGENRE=Karaoke Country
TTITLE0=George Strait - She'll Leave You With a Smile
TTITLE1=Lee Ann Womack - I'll Think of a Reason Later
TTITLE2=Keith Urban - Somebody Like You
TTITLE3=Martina Mc Bride - Where Would You Be
TTITLE4=Dixie Chicks - Landslide
TTITLE5=Lonestar - Not a Day Goes By
TTITLE6=Alan Jackson - Work in Progress
TTITLE7=Brooks and Dunn - My Heart is Lost to You
TTITLE8=George Strait - She'll Leave You With a Smile
TTITLE9=Lee Ann Womack - I'll Think of a Reason Later
TTITLE10=Keith Urban - Somebody Like You
TTITLE11=Martina Mc Bride - Where Would You Be
TTITLE12=Dixie Chicks  - Landslide
TTITLE13=Lonestar - Not a Day Goes By
TTITLE14=Alan Jackson - Work in Progress
TTITLE15=Brooks and Dunn - My Heart is Lost to You
EXTD=Tracks 9-16 Include Demo Track
EXTT0=
EXTT1=
EXTT2=
EXTT3=
EXTT4=
EXTT5=
EXTT6=
EXTT7=
EXTT8=
EXTT9=
EXTT10=
EXTT11=
EXTT12=
EXTT13=
EXTT14=
EXTT15=
PLAYORDER=
